<svg xmlns="http://www.w3.org/2000/svg" xmlns:xlink="http://www.w3.org/1999/xlink" width="369" height="429" viewBox="-268 -358 369 429"><style type="text/css">@font-face{font-family:&apos;PT Mono&apos;;font-style:normal;font-weight:400;src:local(&apos;PT Mono&apos;),local(&apos;PTMono-Regular&apos;),url(http://themes.googleusercontent.com/static/fonts/ptmono/v1/jmle3kzCPnW8O7_gZGRDlQ.woff) format(&apos;woff&apos;)}.leaf{font-family:&quot;Georgia&quot;;font-size:15px}.wraptext{font-family:&quot;PT Mono&quot;;font-size:14px}.wrap{border-radius:4px;stroke-width:1px;stroke:#666;fill:none}</style><g><text x="0" y="16" class="leaf">here</text><text x="0" y="-11" class="wraptext">a</text><rect width="57" height="61" x="-11.5" y="-28.5" class="wrap" rx="4" ry="4"/><text x="57" y="16" class="leaf">.</text><text x="-230" y="16" class="leaf">I also wrote a book! Read it</text><text x="-230" y="-19.5" class="wraptext">p</text><rect width="316" height="82" x="-241.5" y="-37.5" class="wrap" rx="4" ry="4"/><text x="-230" y="-65.5" class="leaf">Hello, I am Marijn and this is...</text><text x="-230" y="-92.5" class="wraptext">p</text><rect width="316" height="61" x="-241.5" y="-110.5" class="wrap" rx="4" ry="4"/><text x="-230" y="-138.5" class="leaf">My home page</text><text x="-230" y="-165.5" class="wraptext">h1</text><rect width="316" height="61" x="-241.5" y="-183.5" class="wrap" rx="4" ry="4"/><text x="-241.5" y="-194.5" class="wraptext">body</text><rect width="340" height="269" x="-253.5" y="-212.5" class="wrap" rx="4" ry="4"/><text x="-230" y="-252.5" class="leaf">My home page</text><text x="-230" y="-279.5" class="wraptext">title</text><rect width="316" height="61" x="-241.5" y="-297.5" class="wrap" rx="4" ry="4"/><text x="-241.5" y="-308.5" class="wraptext">head</text><rect width="340" height="102" x="-253.5" y="-326.5" class="wrap" rx="4" ry="4"/><text x="-253.5" y="-337.5" class="wraptext">html</text><rect width="364" height="424" x="-265.5" y="-355.5" class="wrap" rx="4" ry="4"/></g></svg>