<svg xmlns="http://www.w3.org/2000/svg" width="578" height="342" version="1.1"><defs><style type="text/css">svg{background-color:#fff}.root text,.root tspan{font:12px Arial}.root circle,.root path{stroke-width:2px;stroke:#000}.root path{fill-opacity:0}.root circle{fill:#6b6659}.charset-escape text,.escape text,.literal text{fill:#000}.charset-escape rect,.escape rect{fill:#bada55}.literal rect{fill:#dae9e5}.charset .charset-box{fill:#cbcbba}.charset .charset-label tspan,.subexp .subexp-label tspan{font-size:10px;dominant-baseline:text-after-edge}.subexp .subexp-box{stroke:#908c83;stroke-dasharray:6,2;stroke-width:2px;fill-opacity:0}.quote{fill:#908c83}</style></defs><metadata/><desc>Created with Snap</desc><g class="root" transform="matrix(1.3,0,0,1.3,15,10)"><g class="regexp match"><path d="M92,127H112M282,127H302" transform="matrix(1,0,0,1,10,0)"/><g class="match-fragment escape"><g class="label" transform="matrix(1,0,0,1,10,0) matrix(1,0,0,1,0,115)"><rect width="92" height="24" rx="3" ry="3"/><text x="0" y="0" transform="matrix(1,0,0,1,5,17)"><tspan>word boundary</tspan></text></g></g><g class="match-fragment subexp" transform="matrix(1,0,0,1,10,0) matrix(1,0,0,1,102,0)"><rect width="190" height="232" class="subexp-box" rx="3" ry="3" transform="matrix(1,0,0,1,0,11)"/><text x="0" y="0" class="subexp-label" transform="matrix(1,0,0,1,0,11)"><tspan>group #1</tspan></text><g class="regexp"><path d="M10,52.5q0,-10 10,-10M160,52.5q0,-10 -10,-10M10,121.5q0,10 10,10M160,121.5q0,10 -10,10M10,180q0,10 10,10M160,180q0,10 -10,10M0,106q10,0 10,-10V52.5M170,106q-10,0 -10,-10V52.5M0,106q10,0 10,10V180M170,106q-10,0 -10,10V180" transform="matrix(1,0,0,1,10,21)"/><g class="regexp-matches"><path d="M0,42.5h27.5M112.5,42.5H130M0,131.5h10M130,131.5H130M0,190h46M79,190H130" transform="matrix(1,0,0,1,10,21) matrix(1,0,0,1,20,0)"/><g class="match"><path d="M45,42.5H70" transform="matrix(1,0,0,1,10,21) matrix(1,0,0,1,20,0) matrix(1,0,0,1,17.5,0)"/><g class="match-fragment"><path d="M10,42.5q-10,0 -10,10v21.5q0,10 10,10h35q10,0 10,-10v-21.5q0,-10 -10,-10M55,57.5l5,-5m-5,5l-5,-5" transform="matrix(1,0,0,1,10,21) matrix(1,0,0,1,20,0) matrix(1,0,0,1,17.5,0) matrix(1,0,0,1,0,0)"/><g class="charset" transform="matrix(1,0,0,1,10,21) matrix(1,0,0,1,20,0) matrix(1,0,0,1,17.5,0) matrix(1,0,0,1,0,0) matrix(1,0,0,1,10,0)"><rect width="35" height="63" class="charset-box" rx="3" ry="3" transform="matrix(1,0,0,1,0,11)"/><text x="0" y="0" class="charset-label" transform="matrix(1,0,0,1,0,11)"><tspan>One of:</tspan></text><g><g class="literal"><g class="label" transform="matrix(1,0,0,1,5,16) matrix(1,0,0,1,0,0)"><rect width="25" height="24" rx="3" ry="3"/><text x="0" y="0" transform="matrix(1,0,0,1,5,17)"><tspan class="quote">“</tspan><tspan>0</tspan><tspan class="quote">”</tspan></text></g></g><g class="literal"><g class="label" transform="matrix(1,0,0,1,5,16) matrix(1,0,0,1,0,29)"><rect width="25" height="24" rx="3" ry="3"/><text x="0" y="0" transform="matrix(1,0,0,1,5,17)"><tspan class="quote">“</tspan><tspan>1</tspan><tspan class="quote">”</tspan></text></g></g></g></g></g><g class="match-fragment literal"><g class="label" transform="matrix(1,0,0,1,10,21) matrix(1,0,0,1,20,0) matrix(1,0,0,1,17.5,0) matrix(1,0,0,1,70,30.5)"><rect width="25" height="24" rx="3" ry="3"/><text x="0" y="0" transform="matrix(1,0,0,1,5,17)"><tspan class="quote">“</tspan><tspan>b</tspan><tspan class="quote">”</tspan></text></g></g></g><g class="match"><path d="M80,42.5H105" transform="matrix(1,0,0,1,10,21) matrix(1,0,0,1,20,0) matrix(1,0,0,1,0,89)"/><g class="match-fragment"><path d="M10,42.5q-10,0 -10,10v21.5q0,10 10,10h70q10,0 10,-10v-21.5q0,-10 -10,-10M90,57.5l5,-5m-5,5l-5,-5" transform="matrix(1,0,0,1,10,21) matrix(1,0,0,1,20,0) matrix(1,0,0,1,0,89) matrix(1,0,0,1,0,0)"/><g class="charset" transform="matrix(1,0,0,1,10,21) matrix(1,0,0,1,20,0) matrix(1,0,0,1,0,89) matrix(1,0,0,1,0,0) matrix(1,0,0,1,10,0)"><rect width="70" height="63" class="charset-box" rx="3" ry="3" transform="matrix(1,0,0,1,0,11)"/><text x="0" y="0" class="charset-label" transform="matrix(1,0,0,1,0,11)"><tspan>One of:</tspan></text><g><g class="charset-escape"><g class="label" transform="matrix(1,0,0,1,5,16) matrix(1,0,0,1,13.5,0)"><rect width="33" height="24" rx="3" ry="3"/><text x="0" y="0" transform="matrix(1,0,0,1,5,17)"><tspan>digit</tspan></text></g></g><g class="charset-range"><text x="0" y="0" transform="matrix(1,0,0,1,5,16) matrix(1,0,0,1,0,29) matrix(1,0,0,1,30,16)">-</text><g class="literal"><g class="label" transform="matrix(1,0,0,1,5,16) matrix(1,0,0,1,0,29) matrix(1,0,0,1,0,0)"><rect width="25" height="24" rx="3" ry="3"/><text x="0" y="0" transform="matrix(1,0,0,1,5,17)"><tspan class="quote">“</tspan><tspan>a</tspan><tspan class="quote">”</tspan></text></g></g><g class="literal"><g class="label" transform="matrix(1,0,0,1,5,16) matrix(1,0,0,1,0,29) matrix(1,0,0,1,39,0)"><rect width="21" height="24" rx="3" ry="3"/><text x="0" y="0" transform="matrix(1,0,0,1,5,17)"><tspan class="quote">“</tspan><tspan>f</tspan><tspan class="quote">”</tspan></text></g></g></g></g></g></g><g class="match-fragment literal"><g class="label" transform="matrix(1,0,0,1,10,21) matrix(1,0,0,1,20,0) matrix(1,0,0,1,0,89) matrix(1,0,0,1,105,30.5)"><rect width="25" height="24" rx="3" ry="3"/><text x="0" y="0" transform="matrix(1,0,0,1,5,17)"><tspan class="quote">“</tspan><tspan>h</tspan><tspan class="quote">”</tspan></text></g></g></g><g class="match match-fragment"><path d="M10,12q-10,0 -10,10v2q0,10 10,10h33q10,0 10,-10v-2q0,-10 -10,-10M53,27l5,-5m-5,5l-5,-5" transform="matrix(1,0,0,1,10,21) matrix(1,0,0,1,20,0) matrix(1,0,0,1,36,178)"/><g class="escape"><g class="label" transform="matrix(1,0,0,1,10,21) matrix(1,0,0,1,20,0) matrix(1,0,0,1,36,178) matrix(1,0,0,1,10,0)"><rect width="33" height="24" rx="3" ry="3"/><text x="0" y="0" transform="matrix(1,0,0,1,5,17)"><tspan>digit</tspan></text></g></g></g></g></g></g><g class="match-fragment escape"><g class="label" transform="matrix(1,0,0,1,10,0) matrix(1,0,0,1,302,115)"><rect width="92" height="24" rx="3" ry="3"/><text x="0" y="0" transform="matrix(1,0,0,1,5,17)"><tspan>word boundary</tspan></text></g></g></g><path d="M10,127H0M404,127H414"/><circle cx="0" cy="127" r="5"/><circle cx="414" cy="127" r="5"/></g></svg>