<svg xmlns="http://www.w3.org/2000/svg" xmlns:svg="http://www.w3.org/2000/svg" width="217.525" height="180.305" version="1.1"><path style="fill:none;stroke:#000;stroke-width:2.68549919" id="path4" d="m 149.04519,91.683302 h 13.4275"/><path style="fill:none;stroke:#000;stroke-width:2.68549919" id="path6" d="m 135.6177,91.683302 q 13.42749,0 13.42749,13.427498 v 60.42373 q 0,13.42749 -13.42749,13.42749 H 34.911488 q -13.427496,0 -13.427496,-13.42749 V 105.1108 q 0,-13.427498 13.427496,-13.427498"/><path style="fill:none;stroke:#000;stroke-width:2.68549919" id="path8" d="M 149.04519,91.683302 H 135.6177"/><path style="fill:none;stroke:#000;stroke-width:2.68549919" id="path10" d="M 21.483992,91.683302 H 34.911488"/><path style="fill:none;stroke:#000;stroke-width:2.68549919" id="path12" d="M 135.6177,91.683302 H 122.1902"/><path style="fill:none;stroke:#000;stroke-width:2.68549919" id="path14" d="M 34.911488,91.683302 H 48.338983"/><path style="fill:none;stroke:#000;stroke-width:2.68549919" id="path16" d="m 108.76272,91.683302 q 13.42748,0 13.42748,13.427498 v 33.56873 q 0,13.4275 -13.42748,13.4275 H 61.766478 q -13.427495,0 -13.427495,-13.4275 V 105.1108 q 0,-13.427498 13.427495,-13.427498"/><path style="fill:none;stroke:#000;stroke-width:2.68549919" id="path18" d="M 122.1902,91.683302 H 108.76272"/><path style="fill:none;stroke:#000;stroke-width:2.68549919" id="path20" d="M 48.338983,91.683302 H 61.766478"/><desc id="desc22">Created with Raphaël 2.1.0</desc><rect style="fill:#dae9e5;stroke:#dae9e5;stroke-width:1.3427496" id="rect26" width="33.569" height="33.569" x="162.473" y="74.899" r="0" rx="4.028" ry="4.028"/><text style="font-size:16.11299515px;font-style:normal;font-variant:normal;font-weight:400;line-height:normal;text-anchor:middle;fill:#000;stroke:none;font-family:Arial" id="text28" x="179.257" y="91.683" font="10px &quot;Arial&quot;" font-size="12"><tspan id="tspan30" dy="6.042">&quot;b&quot;</tspan></text><rect style="fill:none;stroke:#a0a0a0;stroke-width:2.68549919;stroke-dasharray:8.05649719,2.68549906" id="rect32" width="100.706" height="151.731" x="34.911" y="13.804" r="0" rx="4.028" ry="4.028"/><text style="font-size:13.427495px;font-style:normal;font-variant:normal;font-weight:400;line-height:normal;text-anchor:middle;fill:#000;stroke:none;font-family:Arial" id="text34" x="64.452" y="5.076" font="10px &quot;Arial&quot;" font-size="10"><tspan id="tspan36" dy="4.7">Group #1</tspan></text><rect style="fill:#cbcbba;stroke:#cbcbba;stroke-width:1.3427496" id="rect38" width="46.996" height="93.992" x="61.766" y="44.687" r="0" rx="4.028" ry="4.028"/><text style="font-size:13.427495px;font-style:normal;font-variant:normal;font-weight:400;line-height:normal;text-anchor:middle;fill:#000;stroke:none;font-family:Arial" id="text40" x="85.265" y="35.959" font="10px &quot;Arial&quot;" font-size="10"><tspan id="tspan42" dy="4.7">One of:</tspan></text><rect style="fill:#dae9e5;stroke:#dae9e5;stroke-width:1.3427496" id="rect44" width="33.569" height="33.569" x="68.48" y="98.397" r="0" rx="4.028" ry="4.028"/><text style="font-size:16.11299515px;font-style:normal;font-variant:normal;font-weight:400;line-height:normal;text-anchor:middle;fill:#000;stroke:none;font-family:Arial" id="text46" x="85.265" y="115.181" font="10px &quot;Arial&quot;" font-size="12"><tspan id="tspan48" dy="6.042">&quot;1&quot;</tspan></text><rect style="fill:#dae9e5;stroke:#dae9e5;stroke-width:1.3427496" id="rect50" width="33.569" height="33.569" x="68.48" y="51.401" r="0" rx="4.028" ry="4.028"/><text style="font-size:16.11299515px;font-style:normal;font-variant:normal;font-weight:400;line-height:normal;text-anchor:middle;fill:#000;stroke:none;font-family:Arial" id="text52" x="85.265" y="68.185" font="10px &quot;Arial&quot;" font-size="12"><tspan id="tspan54" dy="6.042">&quot;0&quot;</tspan></text><path style="fill:none;stroke:#000;stroke-width:2.68549919" id="path56" d="M 8.0564968,91.683302 H 21.483992"/><circle style="fill:#6b6659;stroke:#000;stroke-width:2" id="circle58" cx="10" cy="81" r="5" transform="matrix(1.3427496,0,0,1.3427496,-5.3709984,-17.079408)"/><path style="fill:none;stroke:#000;stroke-width:2.68549919" id="path60" d="M 209.46892,91.683302 H 196.04143"/><circle style="fill:#6b6659;stroke:#000;stroke-width:2" id="circle62" cx="160" cy="81" r="5" transform="matrix(1.3427496,0,0,1.3427496,-5.3709984,-17.079408)"/></svg>